<?xml version="1.0" encoding="UTF-8"?>
<svg id="Layer_1" data-name="Layer 1" xmlns="http://www.w3.org/2000/svg" xmlns:xlink="http://www.w3.org/1999/xlink" viewBox="0 0 970 250">
  <defs>
    <style>
      .cls-1 {
        fill: #0a2f46;
      }

      .cls-2 {
        fill: url(#linear-gradient);
      }
    </style>
    <linearGradient id="linear-gradient" x1="143.19" y1="-2961.25" x2="834.79" y2="-2381.46" gradientTransform="translate(0 -2548.66) scale(1 -1)" gradientUnits="userSpaceOnUse">
      <stop offset="0" stop-color="#ffdfc8"/>
      <stop offset="1" stop-color="#dbdbf8"/>
    </linearGradient>
  </defs>
  <path class="cls-2" d="M-1.85-1.57v254.16h974.98V-1.57H-1.85ZM745.97,98.99l12.64-30.05h8.78l-12.64,30.05h-8.78ZM771.7,75.77l4.74,11.16h-9.33l4.59-11.16ZM772,98.86l-2.91-6.88h9.33l2.91,6.88h-9.33Z"/>
  <path class="cls-1" d="M806.49,84.05v14.92h-6.53v-12.9c0-3.11-1.4-4.66-4.04-4.66s-4.04,1.55-4.04,4.66v12.9h-6.53v-23.15h5.13l1.4,3.26c1.55-1.86,3.42-3.73,6.84-3.73,4.97,0,7.77,3.26,7.77,8.55v.16ZM829.18,78.3c1.71,1.71,2.49,4.2,2.49,7.3v13.36h-5.28l-1.09-2.49c-1.55,1.71-3.73,2.95-6.99,2.95s-7.92-2.49-7.92-6.99h0c0-5.13,3.88-7.46,9.32-7.46s4.04.31,5.59.93v-.31c0-2.64-1.71-4.2-4.97-4.2s-4.04.47-5.9,1.09l-2.02-4.82c2.49-1.09,4.97-1.86,9.01-1.86s6.22.93,7.77,2.64v-.16ZM825.45,89.8c-1.09-.47-2.64-.93-4.2-.93-2.8,0-4.51,1.09-4.51,3.26h0c0,1.86,1.4,2.95,3.57,2.95,3.11,0,5.13-1.71,5.13-4.04v-1.24ZM860.88,87.47h0c0,7.77-4.97,11.96-10.57,11.96s-5.59-1.55-7.15-3.42v10.26h-6.53v-30.3h5.13l1.4,3.26c1.55-2.18,3.73-3.73,7.15-3.73,5.44,0,10.57,4.2,10.57,11.96h0ZM854.35,87.47c0-3.88-2.64-6.37-5.59-6.37s-5.59,2.49-5.59,6.37h0c0,3.88,2.49,6.53,5.59,6.53s5.59-2.49,5.59-6.37h0v-.16ZM914.95,75.5c-3.26,0-5.28,1.71-6.84,3.73l-1.4-3.26h-5.13v23.15h6.53v-12.9c0-3.11,1.55-4.66,4.04-4.66s4.04,1.55,4.04,4.66v12.9h6.53v-14.92c0-5.28-2.95-8.55-7.77-8.55v-.16ZM894.13,78.3c1.71,1.71,2.49,4.2,2.49,7.3v13.36h-5.28l-1.09-2.49c-1.55,1.71-3.73,2.95-6.99,2.95s-7.92-2.49-7.92-6.99h0c0-5.13,3.88-7.46,9.32-7.46s4.04.31,5.59.93v-.31c0-2.64-1.71-4.2-4.97-4.2s-4.04.47-5.9,1.09l-2.02-4.82c2.49-1.09,4.97-1.86,9.01-1.86s6.22.93,7.77,2.64v-.16ZM890.4,89.8c-1.09-.47-2.64-.93-4.2-.93-2.8,0-4.51,1.09-4.51,3.26h0c0,1.86,1.4,2.95,3.57,2.95,3.11,0,5.13-1.71,5.13-4.04v-1.24ZM864.92,98.97h6.53v-30.3h-6.53v30.3Z"/>
</svg>