<?xml version="1.0" encoding="UTF-8"?>
<svg id="Layer_1" data-name="Layer 1" xmlns="http://www.w3.org/2000/svg" xmlns:xlink="http://www.w3.org/1999/xlink" viewBox="0 0 160 600">
  <defs>
    <style>
      .cls-1 {
        fill: #0a2f46;
      }

      .cls-2 {
        fill: url(#linear-gradient);
      }
    </style>
    <linearGradient id="linear-gradient" x1="20.44" y1="172.06" x2="327.79" y2="429.72" gradientTransform="translate(-1150.78 .39) scale(7.13 1)" gradientUnits="userSpaceOnUse">
      <stop offset="0" stop-color="#ffdfc8"/>
      <stop offset="1" stop-color="#dbdbf8"/>
    </linearGradient>
  </defs>
  <path class="cls-2" d="M161.23,601.33V-1.27H-1.26v602.6h162.49ZM18.62,516.98l8.7-20.68h6.05l-8.7,20.68h-6.05ZM36.23,500.96l3.29,7.74h-6.47l3.18-7.74ZM36.44,516.98l-2.02-4.77h6.47l2.02,4.77h-6.47Z"/>
  <path class="cls-1" d="M60.71,506.73v10.47h-4.58v-9.05c0-2.18-.98-3.27-2.84-3.27s-2.84,1.09-2.84,3.27v9.05h-4.58v-16.25h3.6l.98,2.29c1.09-1.31,2.4-2.62,4.8-2.62,3.49,0,5.45,2.29,5.45,6v.11ZM76.64,502.69c1.2,1.2,1.75,2.94,1.75,5.13v9.38h-3.71l-.76-1.75c-1.09,1.2-2.62,2.07-4.91,2.07s-5.56-1.75-5.56-4.91h0c0-3.6,2.73-5.24,6.54-5.24s2.84.22,3.93.65v-.22c0-1.85-1.2-2.94-3.49-2.94s-2.84.33-4.14.76l-1.42-3.38c1.75-.76,3.49-1.31,6.33-1.31s4.36.65,5.45,1.85v-.11ZM74.02,510.76c-.76-.33-1.85-.65-2.94-.65-1.96,0-3.16.76-3.16,2.29h0c0,1.31.98,2.07,2.51,2.07,2.18,0,3.6-1.2,3.6-2.84v-.87ZM98.89,509.13h0c0,5.45-3.49,8.4-7.42,8.4s-3.93-1.09-5.02-2.4v7.2h-4.58v-21.27h3.6l.98,2.29c1.09-1.53,2.62-2.62,5.02-2.62,3.82,0,7.42,2.94,7.42,8.4h0ZM94.31,509.13c0-2.73-1.85-4.47-3.93-4.47s-3.93,1.75-3.93,4.47h0c0,2.73,1.75,4.58,3.93,4.58s3.93-1.75,3.93-4.47h0v-.11ZM136.84,500.73c-2.29,0-3.71,1.2-4.8,2.62l-.98-2.29h-3.6v16.25h4.58v-9.05c0-2.18,1.09-3.27,2.84-3.27s2.84,1.09,2.84,3.27v9.05h4.58v-10.47c0-3.71-2.07-6-5.45-6v-.11ZM122.23,502.69c1.2,1.2,1.75,2.94,1.75,5.13v9.38h-3.71l-.76-1.75c-1.09,1.2-2.62,2.07-4.91,2.07s-5.56-1.75-5.56-4.91h0c0-3.6,2.73-5.24,6.54-5.24s2.84.22,3.93.65v-.22c0-1.85-1.2-2.94-3.49-2.94s-2.84.33-4.14.76l-1.42-3.38c1.75-.76,3.49-1.31,6.33-1.31s4.36.65,5.45,1.85v-.11ZM119.61,510.76c-.76-.33-1.85-.65-2.94-.65-1.96,0-3.16.76-3.16,2.29h0c0,1.31.98,2.07,2.51,2.07,2.18,0,3.6-1.2,3.6-2.84v-.87ZM101.72,517.2h4.58v-21.27h-4.58v21.27Z"/>
</svg>