<?xml version="1.0" encoding="UTF-8"?>
<svg id="Layer_2" data-name="Layer 2" xmlns="http://www.w3.org/2000/svg" xmlns:xlink="http://www.w3.org/1999/xlink" viewBox="0 0 728 90">
  <defs>
    <style>
      .cls-1 {
        fill: none;
      }

      .cls-2 {
        mask: url(#mask);
      }

      .cls-3 {
        fill: url(#linear-gradient-8);
      }

      .cls-4 {
        fill: url(#linear-gradient-7);
      }

      .cls-5 {
        fill: url(#linear-gradient-5);
      }

      .cls-6 {
        fill: url(#linear-gradient-6);
      }

      .cls-7 {
        fill: url(#linear-gradient-9);
      }

      .cls-8 {
        fill: url(#linear-gradient-4);
      }

      .cls-9 {
        fill: url(#linear-gradient-3);
      }

      .cls-10 {
        fill: url(#linear-gradient-2);
      }

      .cls-11 {
        fill: #0a2f46;
      }

      .cls-12 {
        fill: url(#linear-gradient);
      }

      .cls-13 {
        mask: url(#mask-2);
      }

      .cls-14 {
        mask: url(#mask-3);
      }

      .cls-15 {
        mask: url(#mask-4);
      }

      .cls-16 {
        mask: url(#mask-5);
      }

      .cls-17 {
        mask: url(#mask-7);
      }

      .cls-18 {
        mask: url(#mask-6);
      }

      .cls-19 {
        mask: url(#mask-1);
      }

      .cls-20 {
        fill: #fff;
      }

      .cls-21 {
        fill: url(#linear-gradient-10);
      }

      .cls-22 {
        fill: url(#linear-gradient-11);
      }

      .cls-23 {
        fill: url(#linear-gradient-12);
      }

      .cls-24 {
        fill: url(#linear-gradient-13);
      }

      .cls-25 {
        fill: url(#linear-gradient-14);
      }

      .cls-26 {
        fill: url(#linear-gradient-15);
      }

      .cls-27 {
        fill: url(#linear-gradient-16);
      }

      .cls-28 {
        clip-path: url(#clippath);
      }
    </style>
    <clipPath id="clippath">
      <path class="cls-1" d="M0,0v90h728V0H0ZM601.19,30.74l6.76-16.02h4.7l-6.76,16.02h-4.7ZM614.76,18.34l2.54,5.97h-4.97l2.43-5.97ZM614.99,30.74l-1.55-3.67h5.04l1.55,3.67h-5.04Z"/>
    </clipPath>
    <linearGradient id="linear-gradient" x1="643.25" y1="44" x2="795.88" y2="-40.34" gradientUnits="userSpaceOnUse">
      <stop offset="0" stop-color="#fff"/>
      <stop offset="1" stop-color="#000"/>
    </linearGradient>
    <mask id="mask" x="508.96" y="-112.16" width="399.64" height="239.9" maskUnits="userSpaceOnUse">
      <rect class="cls-12" x="508.96" y="-112.16" width="399.64" height="239.9"/>
    </mask>
    <linearGradient id="linear-gradient-2" x1="640.06" y1="-8.11" x2="714.7" y2="21.75" gradientUnits="userSpaceOnUse">
      <stop offset="0" stop-color="#0a2f46"/>
      <stop offset="1" stop-color="#133f59"/>
    </linearGradient>
    <linearGradient id="linear-gradient-3" x1="641.65" y1="-6.74" x2="521.11" y2="94.39" xlink:href="#linear-gradient"/>
    <mask id="mask-1" x="424.51" y="-112.16" width="399.64" height="239.9" maskUnits="userSpaceOnUse">
      <rect class="cls-9" x="424.51" y="-112.16" width="399.64" height="239.9"/>
    </mask>
    <linearGradient id="linear-gradient-4" x1="567.41" y1="-2.84" x2="617.32" y2="17.12" xlink:href="#linear-gradient-2"/>
    <linearGradient id="linear-gradient-5" x1="580.51" y1="178.78" x2="617.09" y2="-85.43" gradientUnits="userSpaceOnUse">
      <stop offset="0" stop-color="#fff"/>
      <stop offset=".18" stop-color="#d2d2d2"/>
      <stop offset="1" stop-color="#000"/>
    </linearGradient>
    <mask id="mask-2" x="404.36" y="-112.16" width="399.64" height="239.9" maskUnits="userSpaceOnUse">
      <rect class="cls-5" x="404.36" y="-112.16" width="399.64" height="239.9"/>
    </mask>
    <linearGradient id="linear-gradient-6" x1="537.1" y1="3.48" x2="557.33" y2="11.57" xlink:href="#linear-gradient-2"/>
    <linearGradient id="linear-gradient-7" x1="510.66" y1="-2.52" x2="533.8" y2="98.98" gradientTransform="translate(1026.02 15.57) rotate(-180)" gradientUnits="userSpaceOnUse">
      <stop offset="0" stop-color="#fff"/>
      <stop offset="1" stop-color="#000"/>
      <stop offset="1" stop-color="#000"/>
    </linearGradient>
    <mask id="mask-3" x="313.19" y="-112.16" width="399.64" height="239.9" maskUnits="userSpaceOnUse">
      <rect class="cls-4" x="313.19" y="-112.16" width="399.64" height="239.9" transform="translate(1026.02 15.57) rotate(180)"/>
    </mask>
    <linearGradient id="linear-gradient-8" x1="408.82" y1="-14.04" x2="511.3" y2="26.95" xlink:href="#linear-gradient-2"/>
    <linearGradient id="linear-gradient-9" x1="144.77" y1="-99.06" x2="82.69" y2="100.29" xlink:href="#linear-gradient"/>
    <mask id="mask-4" x="-88.33" y="-112.16" width="399.64" height="239.9" maskUnits="userSpaceOnUse">
      <rect class="cls-7" x="-88.33" y="-112.16" width="399.64" height="239.9"/>
    </mask>
    <linearGradient id="linear-gradient-10" x1="56.8" y1="-1.76" x2="101.62" y2="16.17" xlink:href="#linear-gradient-2"/>
    <linearGradient id="linear-gradient-11" x1="297.87" y1="105.93" x2="398.63" y2="-35.87" xlink:href="#linear-gradient"/>
    <mask id="mask-5" x="167.78" y="-112.16" width="399.64" height="239.9" maskUnits="userSpaceOnUse">
      <rect class="cls-22" x="167.78" y="-112.16" width="399.64" height="239.9"/>
    </mask>
    <linearGradient id="linear-gradient-12" x1="299.03" y1="-8.27" x2="374.43" y2="21.89" xlink:href="#linear-gradient-2"/>
    <linearGradient id="linear-gradient-13" x1="318.64" y1="-38.68" x2="240.84" y2="63.2" xlink:href="#linear-gradient"/>
    <mask id="mask-6" x="83.34" y="-112.16" width="399.64" height="239.9" maskUnits="userSpaceOnUse">
      <rect class="cls-24" x="83.34" y="-112.16" width="399.64" height="239.9"/>
    </mask>
    <linearGradient id="linear-gradient-14" x1="171.74" y1="-12.04" x2="264.82" y2="25.2" xlink:href="#linear-gradient-2"/>
    <linearGradient id="linear-gradient-15" x1="117.77" y1="72.08" x2="236.06" y2="-68.6" gradientTransform="translate(343.66 15.57) rotate(-180)" xlink:href="#linear-gradient-7"/>
    <mask id="mask-7" x="-27.99" y="-112.16" width="399.64" height="239.9" maskUnits="userSpaceOnUse">
      <rect class="cls-26" x="-27.99" y="-112.16" width="399.64" height="239.9" transform="translate(343.66 15.57) rotate(180)"/>
    </mask>
    <linearGradient id="linear-gradient-16" x1="115.06" y1=".48" x2="149.36" y2="14.2" xlink:href="#linear-gradient-2"/>
  </defs>
  <g id="_728x90" data-name="728x90">
    <g class="cls-28">
      <g>
        <rect class="cls-11" x="-.47" y="-95.6" width="776.09" height="206.79"/>
        <g class="cls-2">
          <polygon class="cls-10" points="687.85 111.18 775.62 -95.6 671.76 -95.6 583.98 111.18 687.85 111.18"/>
        </g>
        <g class="cls-19">
          <polygon class="cls-8" points="583.98 111.18 671.75 -95.6 603.99 -95.6 516.22 111.18 583.98 111.18"/>
        </g>
        <g class="cls-13">
          <polygon class="cls-6" points="516.22 111.18 603.99 -95.6 579.53 -95.6 491.75 111.18 516.22 111.18"/>
        </g>
        <g class="cls-14">
          <polygon class="cls-3" points="491.74 111.18 579.51 -95.6 435.04 -95.6 347.26 111.18 491.74 111.18"/>
        </g>
        <g class="cls-15">
          <polygon class="cls-21" points="66.94 111.18 154.72 -95.6 94.39 -95.6 6.61 111.18 66.94 111.18"/>
        </g>
        <g class="cls-16">
          <polygon class="cls-23" points="347.77 111.18 435.55 -95.6 330.58 -95.6 242.81 111.18 347.77 111.18"/>
        </g>
        <g class="cls-18">
          <polygon class="cls-25" points="242.8 111.18 330.58 -95.6 199.81 -95.6 112.04 111.18 242.8 111.18"/>
        </g>
        <g class="cls-17">
          <polygon class="cls-27" points="111.93 111.18 199.71 -95.6 154.72 -95.6 66.94 111.18 111.93 111.18"/>
        </g>
      </g>
      <path class="cls-20" d="M633.63,22.79v7.95h-3.48v-6.85c0-1.65-.78-2.5-2.11-2.5s-2.18.85-2.18,2.5v6.85h-3.48v-12.28h2.74l.74,1.74c.8-1.03,1.83-1.97,3.6-1.97,2.64,0,4.17,1.74,4.17,4.56ZM645.7,19.69c.92.92,1.33,2.27,1.33,3.92v7.13h-2.81l-.56-1.33c-.85.94-2.02,1.56-3.71,1.56-2.31,0-4.22-1.33-4.22-3.76v-.05c0-2.68,2.04-3.92,4.95-3.92,1.24,0,2.13.21,3,.5v-.21c0-1.44-.89-2.25-2.64-2.25-1.24,0-2.14.22-3.17.59l-1.09-2.58c1.35-.6,2.68-.98,4.77-.98,1.9,0,3.28.5,4.15,1.38ZM643.73,25.79c-.6-.28-1.38-.46-2.22-.46-1.49,0-2.41.6-2.41,1.7v.05c0,.94.78,1.49,1.9,1.49,1.63,0,2.73-.89,2.73-2.15v-.62ZM662.6,24.57v.05c0,4.1-2.68,6.35-5.59,6.35-1.86,0-3-.85-3.83-1.83v5.44h-3.48v-16.12h2.73l.75,1.76c.85-1.15,2.02-1.99,3.83-1.99,2.87,0,5.59,2.25,5.59,6.35ZM659.12,24.57c0-2.04-1.38-3.39-3-3.39s-2.98,1.35-2.98,3.39v.05c0,2.04,1.35,3.39,2.98,3.39s3-1.33,3-3.39v-.05ZM691.33,18.23c-1.76,0-2.8.94-3.6,1.97l-.74-1.74h-2.74v12.28h3.48v-6.85c0-1.65.85-2.5,2.18-2.5s2.11.85,2.11,2.5v6.85h3.48v-7.95c0-2.82-1.54-4.56-4.17-4.56ZM680.25,19.69c.92.92,1.33,2.27,1.33,3.92v7.13h-2.81l-.56-1.33c-.85.94-2.02,1.56-3.71,1.56-2.31,0-4.22-1.33-4.22-3.76v-.05c0-2.68,2.04-3.92,4.95-3.92,1.24,0,2.13.21,3,.5v-.21c0-1.44-.89-2.25-2.64-2.25-1.24,0-2.14.22-3.17.59l-1.09-2.58c1.35-.6,2.68-.98,4.77-.98,1.9,0,3.28.5,4.15,1.38ZM678.28,25.79c-.6-.28-1.38-.46-2.22-.46-1.49,0-2.41.6-2.41,1.7v.05c0,.94.78,1.49,1.9,1.49,1.63,0,2.73-.89,2.73-2.15v-.62ZM664.7,30.74h3.48V14.62h-3.48v16.12Z"/>
    </g>
  </g>
</svg>