<?xml version="1.0" encoding="UTF-8"?>
<svg id="Layer_2" data-name="Layer 2" xmlns="http://www.w3.org/2000/svg" xmlns:xlink="http://www.w3.org/1999/xlink" viewBox="0 0 300 600">
  <defs>
    <style>
      .cls-1 {
        fill: none;
      }

      .cls-2 {
        mask: url(#mask);
      }

      .cls-3 {
        fill: url(#linear-gradient-8);
      }

      .cls-4 {
        fill: url(#linear-gradient-7);
      }

      .cls-5 {
        fill: url(#linear-gradient-5);
      }

      .cls-6 {
        fill: url(#linear-gradient-6);
      }

      .cls-7 {
        fill: url(#linear-gradient-4);
      }

      .cls-8 {
        fill: url(#linear-gradient-3);
      }

      .cls-9 {
        fill: url(#linear-gradient-2);
      }

      .cls-10 {
        fill: #0a2f46;
      }

      .cls-11 {
        fill: url(#linear-gradient);
      }

      .cls-12 {
        mask: url(#mask-2);
      }

      .cls-13 {
        mask: url(#mask-3);
      }

      .cls-14 {
        mask: url(#mask-1);
      }

      .cls-15 {
        fill: #fff;
      }

      .cls-16 {
        clip-path: url(#clippath);
      }
    </style>
    <clipPath id="clippath">
      <path class="cls-1" d="M0,0v600h300V0H0ZM66.93,481.92l12.16-28.8h8.44l-12.16,28.8h-8.44ZM91.33,459.62l4.57,10.73h-8.93l4.37-10.73ZM91.73,481.92l-2.79-6.6h9.07l2.79,6.6h-9.07Z"/>
    </clipPath>
    <linearGradient id="linear-gradient" x1="338.62" y1="413.68" x2="790.89" y2="163.76" gradientUnits="userSpaceOnUse">
      <stop offset="0" stop-color="#fff"/>
      <stop offset="1" stop-color="#000"/>
    </linearGradient>
    <mask id="mask" x="-59.3" y="-49.07" width="1184.23" height="710.88" maskUnits="userSpaceOnUse">
      <rect class="cls-11" x="-59.3" y="-49.07" width="1184.23" height="710.88"/>
    </mask>
    <linearGradient id="linear-gradient-2" x1="329.16" y1="259.27" x2="550.34" y2="347.74" gradientUnits="userSpaceOnUse">
      <stop offset="0" stop-color="#0a2f46"/>
      <stop offset="1" stop-color="#133f59"/>
    </linearGradient>
    <linearGradient id="linear-gradient-3" x1="333.88" y1="263.32" x2="-23.29" y2="562.99" xlink:href="#linear-gradient"/>
    <mask id="mask-1" x="-309.54" y="-49.07" width="1184.23" height="710.88" maskUnits="userSpaceOnUse">
      <rect class="cls-8" x="-309.54" y="-49.07" width="1184.23" height="710.88"/>
    </mask>
    <linearGradient id="linear-gradient-4" x1="113.9" y1="274.88" x2="261.78" y2="334.03" xlink:href="#linear-gradient-2"/>
    <linearGradient id="linear-gradient-5" x1="152.72" y1="813.07" x2="261.09" y2="30.16" gradientUnits="userSpaceOnUse">
      <stop offset="0" stop-color="#fff"/>
      <stop offset=".18" stop-color="#d2d2d2"/>
      <stop offset="1" stop-color="#000"/>
    </linearGradient>
    <mask id="mask-2" x="-369.26" y="-49.07" width="1184.23" height="710.88" maskUnits="userSpaceOnUse">
      <rect class="cls-5" x="-369.26" y="-49.07" width="1184.23" height="710.88"/>
    </mask>
    <linearGradient id="linear-gradient-6" x1="24.08" y1="293.61" x2="84.03" y2="317.59" xlink:href="#linear-gradient-2"/>
    <linearGradient id="linear-gradient-7" x1="-54.27" y1="275.83" x2="14.29" y2="576.61" gradientTransform="translate(-94.62 612.74) rotate(-180)" gradientUnits="userSpaceOnUse">
      <stop offset="0" stop-color="#fff"/>
      <stop offset="1" stop-color="#000"/>
      <stop offset="1" stop-color="#000"/>
    </linearGradient>
    <mask id="mask-3" x="-639.43" y="-49.07" width="1184.23" height="710.88" maskUnits="userSpaceOnUse">
      <rect class="cls-4" x="-639.43" y="-49.07" width="1184.23" height="710.88" transform="translate(-94.62 612.74) rotate(180)"/>
    </mask>
    <linearGradient id="linear-gradient-8" x1="-356.04" y1="241.7" x2="-52.38" y2="363.16" xlink:href="#linear-gradient-2"/>
  </defs>
  <g id="_300x600" data-name="300x600">
    <g class="cls-16">
      <g>
        <rect class="cls-10" x="-1568.87" width="2299.74" height="612.76"/>
        <g class="cls-2">
          <polygon class="cls-9" points="470.77 612.76 730.87 0 423.11 0 163.01 612.76 470.77 612.76"/>
        </g>
        <g class="cls-14">
          <polygon class="cls-7" points="162.99 612.76 423.09 0 222.29 0 -37.81 612.76 162.99 612.76"/>
        </g>
        <g class="cls-12">
          <polygon class="cls-6" points="-37.81 612.76 222.29 0 149.81 0 -110.29 612.76 -37.81 612.76"/>
        </g>
        <g class="cls-13">
          <polygon class="cls-3" points="-110.34 612.76 149.76 0 -278.36 0 -538.46 612.76 -110.34 612.76"/>
        </g>
      </g>
      <path class="cls-15" d="M124.81,467.36v14.14h-6.19v-12.18c0-2.93-1.39-4.44-3.75-4.44s-3.87,1.51-3.87,4.44v12.18h-6.19v-21.83h4.87l1.32,3.1c1.43-1.83,3.26-3.5,6.4-3.5,4.68,0,7.41,3.1,7.41,8.11ZM146.26,461.86c1.63,1.63,2.36,4.03,2.36,6.97v12.67h-4.99l-1-2.36c-1.51,1.67-3.58,2.77-6.6,2.77-4.11,0-7.5-2.36-7.5-6.68v-.08c0-4.77,3.63-6.97,8.8-6.97,2.2,0,3.79.37,5.34.9v-.37c0-2.57-1.59-3.99-4.68-3.99-2.21,0-3.81.39-5.64,1.04l-1.94-4.59c2.4-1.06,4.76-1.75,8.47-1.75,3.38,0,5.83.9,7.37,2.44ZM142.75,472.7c-1.06-.49-2.44-.81-3.95-.81-2.65,0-4.28,1.06-4.28,3.01v.08c0,1.67,1.39,2.65,3.38,2.65,2.89,0,4.85-1.59,4.85-3.83v-1.1ZM176.3,470.54v.08c0,7.29-4.77,11.28-9.94,11.28-3.3,0-5.34-1.51-6.8-3.26v9.67h-6.19v-28.65h4.86l1.34,3.14c1.51-2.04,3.58-3.54,6.8-3.54,5.09,0,9.94,3.99,9.94,11.28ZM170.11,470.54c0-3.63-2.44-6.03-5.34-6.03s-5.3,2.4-5.3,6.03v.08c0,3.63,2.4,6.03,5.3,6.03s5.34-2.36,5.34-6.03v-.08ZM227.37,459.26c-3.14,0-4.97,1.67-6.4,3.5l-1.32-3.1h-4.87v21.83h6.19v-12.18c0-2.93,1.51-4.44,3.87-4.44s3.75,1.51,3.75,4.44v12.18h6.19v-14.14c0-5.01-2.73-8.11-7.41-8.11ZM207.67,461.86c1.63,1.63,2.36,4.03,2.36,6.97v12.67h-4.99l-1-2.36c-1.51,1.67-3.58,2.77-6.6,2.77-4.11,0-7.5-2.36-7.5-6.68v-.08c0-4.77,3.63-6.97,8.8-6.97,2.2,0,3.79.37,5.34.9v-.37c0-2.57-1.59-3.99-4.68-3.99-2.21,0-3.81.39-5.64,1.04l-1.94-4.59c2.4-1.06,4.76-1.75,8.47-1.75,3.38,0,5.83.9,7.37,2.44ZM204.17,472.7c-1.06-.49-2.44-.81-3.95-.81-2.65,0-4.28,1.06-4.28,3.01v.08c0,1.67,1.39,2.65,3.38,2.65,2.89,0,4.85-1.59,4.85-3.83v-1.1ZM180.03,481.5h6.19v-28.65h-6.19v28.65Z"/>
    </g>
  </g>
</svg>