<?xml version="1.0" encoding="UTF-8"?>
<svg id="Layer_1" data-name="Layer 1" xmlns="http://www.w3.org/2000/svg" xmlns:xlink="http://www.w3.org/1999/xlink" viewBox="0 0 728 90">
  <defs>
    <style>
      .cls-1 {
        fill: #0a2f46;
      }

      .cls-2 {
        fill: url(#linear-gradient);
      }
    </style>
    <linearGradient id="linear-gradient" x1="131.58" y1="-2948.84" x2="602.74" y2="-2553.85" gradientTransform="translate(0 -2708.66) scale(1 -1)" gradientUnits="userSpaceOnUse">
      <stop offset="0" stop-color="#ffdfc8"/>
      <stop offset="1" stop-color="#dbdbf8"/>
    </linearGradient>
  </defs>
  <path class="cls-2" d="M-.19-2.65v94.5h730.14V-2.65H-.19ZM601.16,30.68l6.73-16h4.68l-6.73,16h-4.68ZM614.86,18.32l2.52,5.94h-4.97l2.44-5.94ZM615.02,30.61l-1.55-3.66h4.97l1.55,3.66h-4.97Z"/>
  <path class="cls-1" d="M633.47,22.61v7.99h-3.49v-6.9c0-1.66-.75-2.5-2.16-2.5s-2.16.83-2.16,2.5v6.9h-3.49v-12.39h2.75l.75,1.75c.83-1,1.83-2,3.66-2,2.66,0,4.16,1.75,4.16,4.58v.08ZM645.62,19.53c.91.92,1.33,2.25,1.33,3.91v7.15h-2.83l-.58-1.33c-.83.92-2,1.58-3.74,1.58s-4.24-1.33-4.24-3.74h0c0-2.75,2.08-3.99,4.99-3.99s2.16.17,2.99.5v-.17c0-1.41-.91-2.25-2.66-2.25s-2.16.25-3.16.58l-1.08-2.58c1.33-.58,2.66-1,4.82-1s3.33.5,4.16,1.41v-.08ZM643.62,25.69c-.58-.25-1.41-.5-2.25-.5-1.5,0-2.41.58-2.41,1.75h0c0,1,.75,1.58,1.91,1.58,1.66,0,2.75-.92,2.75-2.16v-.67ZM662.59,24.44h0c0,4.16-2.66,6.41-5.66,6.41s-2.99-.83-3.83-1.83v5.49h-3.49v-16.22h2.75l.75,1.75c.83-1.16,2-2,3.83-2,2.91,0,5.66,2.25,5.66,6.41h0ZM659.09,24.44c0-2.08-1.41-3.41-2.99-3.41s-2.99,1.33-2.99,3.41h0c0,2.08,1.33,3.49,2.99,3.49s2.99-1.33,2.99-3.41h0v-.08ZM691.54,18.03c-1.75,0-2.83.92-3.66,2l-.75-1.75h-2.75v12.39h3.49v-6.9c0-1.66.83-2.5,2.16-2.5s2.16.83,2.16,2.5v6.9h3.49v-7.99c0-2.83-1.58-4.58-4.16-4.58v-.08ZM680.39,19.53c.91.92,1.33,2.25,1.33,3.91v7.15h-2.83l-.58-1.33c-.83.92-2,1.58-3.74,1.58s-4.24-1.33-4.24-3.74h0c0-2.75,2.08-3.99,4.99-3.99s2.16.17,2.99.5v-.17c0-1.41-.91-2.25-2.66-2.25s-2.16.25-3.16.58l-1.08-2.58c1.33-.58,2.66-1,4.82-1s3.33.5,4.16,1.41v-.08ZM678.39,25.69c-.58-.25-1.41-.5-2.25-.5-1.5,0-2.41.58-2.41,1.75h0c0,1,.75,1.58,1.91,1.58,1.66,0,2.75-.92,2.75-2.16v-.67ZM664.75,30.59h3.49V14.37h-3.49v16.22Z"/>
</svg>