<?xml version="1.0" encoding="UTF-8"?>
<svg id="Layer_2" data-name="Layer 2" xmlns="http://www.w3.org/2000/svg" xmlns:xlink="http://www.w3.org/1999/xlink" viewBox="0 0 970 250">
  <defs>
    <style>
      .cls-1 {
        fill: none;
      }

      .cls-2 {
        mask: url(#mask);
      }

      .cls-3 {
        fill: url(#linear-gradient-8);
      }

      .cls-4 {
        fill: url(#linear-gradient-7);
      }

      .cls-5 {
        fill: url(#linear-gradient-5);
      }

      .cls-6 {
        fill: url(#linear-gradient-6);
      }

      .cls-7 {
        fill: url(#linear-gradient-9);
      }

      .cls-8 {
        fill: url(#linear-gradient-4);
      }

      .cls-9 {
        fill: url(#linear-gradient-3);
      }

      .cls-10 {
        fill: url(#linear-gradient-2);
      }

      .cls-11 {
        fill: #0a2f46;
      }

      .cls-12 {
        fill: url(#linear-gradient);
      }

      .cls-13 {
        mask: url(#mask-2);
      }

      .cls-14 {
        mask: url(#mask-3);
      }

      .cls-15 {
        mask: url(#mask-4);
      }

      .cls-16 {
        mask: url(#mask-1);
      }

      .cls-17 {
        fill: #fff;
      }

      .cls-18 {
        fill: url(#linear-gradient-10);
      }

      .cls-19 {
        clip-path: url(#clippath);
      }
    </style>
    <clipPath id="clippath">
      <path class="cls-1" d="M0,0v250h970V0H0ZM746.35,99.04l12.79-30.3h8.88l-12.79,30.3h-8.88ZM772.02,75.58l4.8,11.29h-9.4l4.6-11.29ZM772.44,99.04l-2.94-6.94h9.54l2.94,6.94h-9.54Z"/>
    </clipPath>
    <linearGradient id="linear-gradient" x1="1228.7" y1="136.16" x2="1292.52" y2="416.16" gradientTransform="translate(2470.35 329.18) rotate(-180)" gradientUnits="userSpaceOnUse">
      <stop offset="0" stop-color="#fff"/>
      <stop offset="1" stop-color="#000"/>
      <stop offset="1" stop-color="#000"/>
    </linearGradient>
    <mask id="mask" x="683.98" y="-166.28" width="1102.39" height="661.75" maskUnits="userSpaceOnUse">
      <rect class="cls-12" x="683.98" y="-166.28" width="1102.39" height="661.75" transform="translate(2470.35 329.18) rotate(180)"/>
    </mask>
    <linearGradient id="linear-gradient-2" x1="947.78" y1="104.39" x2="1230.45" y2="217.46" gradientUnits="userSpaceOnUse">
      <stop offset="0" stop-color="#0a2f46"/>
      <stop offset="1" stop-color="#133f59"/>
    </linearGradient>
    <linearGradient id="linear-gradient-3" x1="219.41" y1="-130.13" x2="48.16" y2="419.77" gradientUnits="userSpaceOnUse">
      <stop offset="0" stop-color="#fff"/>
      <stop offset="1" stop-color="#000"/>
    </linearGradient>
    <mask id="mask-1" x="-423.57" y="-166.28" width="1102.39" height="661.75" maskUnits="userSpaceOnUse">
      <rect class="cls-9" x="-423.57" y="-166.28" width="1102.39" height="661.75"/>
    </mask>
    <linearGradient id="linear-gradient-4" x1="-23.24" y1="138.27" x2="100.38" y2="187.72" xlink:href="#linear-gradient-2"/>
    <linearGradient id="linear-gradient-5" x1="641.72" y1="435.33" x2="919.66" y2="44.16" xlink:href="#linear-gradient-3"/>
    <mask id="mask-2" x="282.89" y="-166.28" width="1102.39" height="661.75" maskUnits="userSpaceOnUse">
      <rect class="cls-5" x="282.89" y="-166.28" width="1102.39" height="661.75"/>
    </mask>
    <linearGradient id="linear-gradient-6" x1="644.92" y1="120.3" x2="852.91" y2="203.5" xlink:href="#linear-gradient-2"/>
    <linearGradient id="linear-gradient-7" x1="699.03" y1="36.42" x2="484.4" y2="317.44" xlink:href="#linear-gradient-3"/>
    <mask id="mask-3" x="49.95" y="-166.28" width="1102.39" height="661.75" maskUnits="userSpaceOnUse">
      <rect class="cls-4" x="49.95" y="-166.28" width="1102.39" height="661.75"/>
    </mask>
    <linearGradient id="linear-gradient-8" x1="293.81" y1="109.91" x2="550.57" y2="212.62" xlink:href="#linear-gradient-2"/>
    <linearGradient id="linear-gradient-9" x1="144.92" y1="341.95" x2="471.24" y2="-46.13" gradientTransform="translate(588.11 329.18) rotate(-180)" xlink:href="#linear-gradient"/>
    <mask id="mask-4" x="-257.14" y="-166.28" width="1102.39" height="661.75" maskUnits="userSpaceOnUse">
      <rect class="cls-7" x="-257.14" y="-166.28" width="1102.39" height="661.75" transform="translate(588.11 329.18) rotate(180)"/>
    </mask>
    <linearGradient id="linear-gradient-10" x1="137.47" y1="144.45" x2="232.07" y2="182.29" xlink:href="#linear-gradient-2"/>
  </defs>
  <g id="_970x250" data-name="970x250">
    <g class="cls-19">
      <g>
        <rect class="cls-11" x="-181.22" y="-120.6" width="2140.8" height="570.41"/>
        <g class="cls-2">
          <polygon class="cls-10" points="1176.5 449.8 1418.63 -120.6 1020.1 -120.6 777.97 449.8 1176.5 449.8"/>
        </g>
        <g class="cls-16">
          <polygon class="cls-8" points="4.74 449.8 246.86 -120.6 80.43 -120.6 -161.69 449.8 4.74 449.8"/>
        </g>
        <g class="cls-13">
          <polygon class="cls-6" points="779.38 449.8 1021.51 -120.6 731.96 -120.6 489.84 449.8 779.38 449.8"/>
        </g>
        <g class="cls-14">
          <polygon class="cls-3" points="489.82 449.8 731.95 -120.6 371.24 -120.6 129.12 449.8 489.82 449.8"/>
        </g>
        <g class="cls-15">
          <polygon class="cls-18" points="128.82 449.8 370.95 -120.6 246.86 -120.6 4.74 449.8 128.82 449.8"/>
        </g>
      </g>
      <path class="cls-17" d="M806.67,84.02v14.99h-6.57v-12.92c0-3.11-1.47-4.71-3.98-4.71s-4.1,1.6-4.1,4.71v12.92h-6.57v-23.16h5.17l1.4,3.28c1.51-1.94,3.46-3.72,6.78-3.72,4.97,0,7.86,3.28,7.86,8.6ZM829.42,78.19c1.73,1.73,2.51,4.28,2.51,7.39v13.44h-5.29l-1.06-2.51c-1.6,1.77-3.8,2.94-7,2.94-4.36,0-7.95-2.51-7.95-7.09v-.09c0-5.06,3.85-7.39,9.33-7.39,2.33,0,4.02.39,5.66.95v-.39c0-2.72-1.69-4.23-4.97-4.23-2.34,0-4.04.42-5.98,1.11l-2.05-4.87c2.55-1.12,5.05-1.86,8.98-1.86,3.59,0,6.18.95,7.82,2.59ZM825.71,89.68c-1.12-.52-2.59-.86-4.19-.86-2.81,0-4.54,1.12-4.54,3.2v.09c0,1.77,1.47,2.81,3.59,2.81,3.07,0,5.14-1.69,5.14-4.06v-1.17ZM861.29,87.39v.09c0,7.73-5.06,11.97-10.54,11.97-3.5,0-5.66-1.6-7.22-3.46v10.26h-6.57v-30.39h5.15l1.42,3.33c1.6-2.16,3.8-3.76,7.22-3.76,5.4,0,10.54,4.23,10.54,11.97ZM854.72,87.39c0-3.85-2.59-6.39-5.66-6.39s-5.62,2.55-5.62,6.39v.09c0,3.85,2.55,6.39,5.62,6.39s5.66-2.51,5.66-6.39v-.09ZM915.45,75.42c-3.33,0-5.27,1.77-6.78,3.72l-1.4-3.28h-5.17v23.16h6.57v-12.92c0-3.11,1.6-4.71,4.1-4.71s3.98,1.6,3.98,4.71v12.92h6.57v-14.99c0-5.31-2.9-8.6-7.86-8.6ZM894.56,78.19c1.73,1.73,2.51,4.28,2.51,7.39v13.44h-5.29l-1.06-2.51c-1.6,1.77-3.8,2.94-7,2.94-4.36,0-7.95-2.51-7.95-7.09v-.09c0-5.06,3.85-7.39,9.33-7.39,2.33,0,4.02.39,5.66.95v-.39c0-2.72-1.69-4.23-4.97-4.23-2.34,0-4.04.42-5.98,1.11l-2.05-4.87c2.55-1.12,5.05-1.86,8.98-1.86,3.59,0,6.18.95,7.82,2.59ZM890.85,89.68c-1.12-.52-2.59-.86-4.19-.86-2.81,0-4.54,1.12-4.54,3.2v.09c0,1.77,1.47,2.81,3.59,2.81,3.07,0,5.14-1.69,5.14-4.06v-1.17ZM865.24,99.02h6.57v-30.39h-6.57v30.39Z"/>
    </g>
  </g>
</svg>