<?xml version="1.0" encoding="UTF-8"?>
<svg id="Layer_1" data-name="Layer 1" xmlns="http://www.w3.org/2000/svg" xmlns:xlink="http://www.w3.org/1999/xlink" viewBox="0 0 300 600">
  <defs>
    <style>
      .cls-1 {
        fill: #0a2f46;
      }

      .cls-2 {
        fill: url(#linear-gradient);
      }
    </style>
    <linearGradient id="linear-gradient" x1="-81.85" y1="104.96" x2="388.09" y2="498.93" gradientUnits="userSpaceOnUse">
      <stop offset="0" stop-color="#ffdfc8"/>
      <stop offset="1" stop-color="#dbdbf8"/>
    </linearGradient>
  </defs>
  <path class="cls-2" d="M-.2-1.27v602.6h302.1V-1.27H-.2ZM68.75,481.16l11.85-28.18h8.24l-11.85,28.18h-8.24ZM92.73,459.35l4.48,10.55h-8.81l4.33-10.55ZM93.02,481.16l-2.75-6.5h8.81l2.75,6.5h-8.81Z"/>
  <path class="cls-1" d="M125.39,467.29v13.87h-6.07v-11.99c0-2.89-1.3-4.33-3.76-4.33s-3.76,1.44-3.76,4.33v11.99h-6.07v-21.53h4.77l1.3,3.03c1.44-1.73,3.18-3.47,6.36-3.47,4.62,0,7.22,3.03,7.22,7.95v.14ZM146.48,461.95c1.59,1.59,2.31,3.9,2.31,6.79v12.43h-4.91l-1.01-2.31c-1.44,1.59-3.47,2.75-6.5,2.75s-7.37-2.31-7.37-6.5h0c0-4.77,3.61-6.94,8.67-6.94s3.76.29,5.2.87v-.29c0-2.46-1.59-3.9-4.62-3.9s-3.76.43-5.49,1.01l-1.88-4.48c2.31-1.01,4.62-1.73,8.38-1.73s5.78.87,7.22,2.46v-.14ZM143.01,472.64c-1.01-.43-2.46-.87-3.9-.87-2.6,0-4.19,1.01-4.19,3.03h0c0,1.73,1.3,2.75,3.32,2.75,2.89,0,4.77-1.59,4.77-3.76v-1.16ZM175.96,470.47h0c0,7.22-4.62,11.13-9.83,11.13s-5.2-1.44-6.65-3.18v9.54h-6.07v-28.18h4.77l1.3,3.03c1.44-2.02,3.47-3.47,6.65-3.47,5.06,0,9.83,3.9,9.83,11.13h0ZM169.89,470.47c0-3.61-2.46-5.92-5.2-5.92s-5.2,2.31-5.2,5.92h0c0,3.61,2.31,6.07,5.2,6.07s5.2-2.31,5.2-5.92h0v-.14ZM226.24,459.35c-3.03,0-4.91,1.59-6.36,3.47l-1.3-3.03h-4.77v21.53h6.07v-11.99c0-2.89,1.44-4.33,3.76-4.33s3.76,1.44,3.76,4.33v11.99h6.07v-13.87c0-4.91-2.75-7.95-7.22-7.95v-.14ZM206.88,461.95c1.59,1.59,2.31,3.9,2.31,6.79v12.43h-4.91l-1.01-2.31c-1.44,1.59-3.47,2.75-6.5,2.75s-7.37-2.31-7.37-6.5h0c0-4.77,3.61-6.94,8.67-6.94s3.76.29,5.2.87v-.29c0-2.46-1.59-3.9-4.62-3.9s-3.76.43-5.49,1.01l-1.88-4.48c2.31-1.01,4.62-1.73,8.38-1.73s5.78.87,7.22,2.46v-.14ZM203.41,472.64c-1.01-.43-2.46-.87-3.9-.87-2.6,0-4.19,1.01-4.19,3.03h0c0,1.73,1.3,2.75,3.32,2.75,2.89,0,4.77-1.59,4.77-3.76v-1.16ZM179.71,481.16h6.07v-28.18h-6.07v28.18Z"/>
</svg>